<?xml version="1.0" standalone="no"?><!DOCTYPE svg PUBLIC "-//W3C//DTD SVG 1.1//EN" "http://www.w3.org/Graphics/SVG/1.1/DTD/svg11.dtd"><svg t="1710229455450" class="icon" viewBox="0 0 1024 1024" version="1.1" xmlns="http://www.w3.org/2000/svg" p-id="12948" xmlns:xlink="http://www.w3.org/1999/xlink" width="200" height="200"><path d="M421.888 460.8h-337.92a35.84 35.84 0 0 1-35.84-35.84V87.04a35.84 35.84 0 0 1 35.84-35.84h337.92a35.84 35.84 0 0 1 35.84 35.84v337.92a35.84 35.84 0 0 1-35.84 35.84z m-322.56-51.2h307.2V102.4h-307.2zM933.888 460.8h-337.92a35.84 35.84 0 0 1-35.84-35.84V87.04a35.84 35.84 0 0 1 35.84-35.84h337.92a35.84 35.84 0 0 1 35.84 35.84v337.92a35.84 35.84 0 0 1-35.84 35.84z m-322.56-51.2h307.2V102.4h-307.2zM421.888 972.8h-337.92a35.84 35.84 0 0 1-35.84-35.84v-337.92a35.84 35.84 0 0 1 35.84-35.84h337.92a35.84 35.84 0 0 1 35.84 35.84v337.92a35.84 35.84 0 0 1-35.84 35.84z m-322.56-51.2h307.2v-307.2h-307.2zM933.888 972.8h-337.92a35.84 35.84 0 0 1-35.84-35.84v-337.92a35.84 35.84 0 0 1 35.84-35.84h337.92a35.84 35.84 0 0 1 35.84 35.84v337.92a35.84 35.84 0 0 1-35.84 35.84z m-322.56-51.2h307.2v-307.2h-307.2z" p-id="12949"></path></svg>