<?xml version="1.0" standalone="no"?><!DOCTYPE svg PUBLIC "-//W3C//DTD SVG 1.1//EN" "http://www.w3.org/Graphics/SVG/1.1/DTD/svg11.dtd"><svg t="1710229579830" class="icon" viewBox="0 0 1024 1024" version="1.1" xmlns="http://www.w3.org/2000/svg" p-id="18812" xmlns:xlink="http://www.w3.org/1999/xlink" width="200" height="200"><path d="M178.995 94.55a64.444 64.444 0 0 1 60.758-43.009h581.905c27.989 0 52.838 18.16 61.44 44.852l105.13 329.386a106.77 106.77 0 0 1-102.4 139.264l-43.827-0.273A104.175 104.175 0 0 1 738.51 460.595h-72.772c0 57.003-46.217 103.22-103.22 103.22h-68.949a99.942 99.942 0 0 1-99.942-99.943h-54.34c0 56.388-45.74 102.195-102.196 102.195h-61.303A115.575 115.575 0 0 1 66.765 411.921l112.23-317.44z m198.793 169.642h315.528a36.25 36.25 0 1 0 0-72.5H377.788a36.25 36.25 0 0 0 0 72.5zM193.195 900.164v-231.15a36.25 36.25 0 1 0-72.5 0v267.4c0 20.07 16.18 36.25 36.182 36.25H922.01a36.25 36.25 0 0 0 36.25-36.182v-263.51a36.25 36.25 0 0 0-72.568 0v227.124H193.195z" p-id="18813"></path></svg>