<?xml version="1.0" standalone="no"?><!DOCTYPE svg PUBLIC "-//W3C//DTD SVG 1.1//EN" "http://www.w3.org/Graphics/SVG/1.1/DTD/svg11.dtd"><svg t="1710229421030" class="icon" viewBox="0 0 1024 1024" version="1.1" xmlns="http://www.w3.org/2000/svg" p-id="9648" xmlns:xlink="http://www.w3.org/1999/xlink" width="200" height="200"><path d="M407.009187 788.296817A394.170697 394.170697 0 0 1 253.612959 31.174254a394.175768 394.175768 0 0 1 306.792456 726.208009 391.584341 391.584341 0 0 1-153.396228 30.914554z m0-734.961048c-187.972249 0-340.891777 152.919527-340.891777 340.891777s152.919527 340.891777 340.891777 340.891776 340.891777-152.92967 340.891777-340.841063S594.981436 53.335769 407.009187 53.335769z" p-id="9649"></path><path d="M599.354026 695.336201m14.770304-13.59151l80.486593-74.063083q14.770305-13.59151 28.361814 1.178795l282.791315 307.317871q13.59151 14.770305-1.178795 28.361815l-80.486592 74.063084q-14.770305 13.59151-28.361815-1.178795l-282.791314-307.317872q-13.59151-14.770305 1.178794-28.361815Z" p-id="9650"></path></svg>